<?xml version="1.0" standalone="no"?>
<!DOCTYPE svg PUBLIC "-//W3C//DTD SVG 20010904//EN"
 "http://www.w3.org/TR/2001/REC-SVG-20010904/DTD/svg10.dtd">
<svg version="1.0" xmlns="http://www.w3.org/2000/svg"
 width="213.000000pt" height="213.000000pt" viewBox="0 0 213.000000 213.000000"
 preserveAspectRatio="xMidYMid meet">
<metadata>
Created by potrace 1.14, written by Peter Selinger 2001-2017
</metadata>
<g transform="translate(0.000000,213.000000) scale(0.100000,-0.100000)"
fill="#000000" stroke="none">
<path d="M1055 1863 c-53 -20 -68 -25 -80 -29 -11 -3 -252 -91 -275 -101 -8
-3 -19 -7 -25 -9 -5 -1 -68 -23 -140 -49 -72 -26 -134 -48 -140 -49 -35 -8
-84 -37 -88 -53 -7 -25 -1 -499 7 -543 63 -339 254 -535 715 -731 l65 -27 45
18 c25 10 63 26 83 34 21 9 40 15 42 14 2 -2 12 5 22 14 11 9 26 18 34 20 8 2
17 5 20 8 3 3 25 16 50 29 133 71 258 173 337 276 27 35 95 157 99 178 1 4 2
8 3 10 2 1 4 13 7 27 2 14 7 32 11 40 7 18 11 33 18 80 4 19 9 46 12 60 2 14
6 132 8 263 l4 238 -42 19 c-23 11 -87 35 -142 55 -55 20 -116 42 -135 50 -19
7 -75 28 -125 45 -134 47 -198 71 -217 81 -10 5 -24 9 -32 9 -7 0 -26 7 -42
14 -15 8 -31 13 -36 10 -4 -3 -8 0 -8 5 0 13 -5 13 -55 -6z"/>
</g>
</svg>
